<svg id="visual" viewBox="0 0 900 600" width="900" height="600" xmlns="http://www.w3.org/2000/svg" xmlns:xlink="http://www.w3.org/1999/xlink" version="1.1"><rect x="0" y="0" width="900" height="600" fill="#FBF8E9"></rect><path d="M0 221L21.5 215.2C43 209.3 86 197.7 128.8 176.5C171.7 155.3 214.3 124.7 257.2 128.5C300 132.3 343 170.7 385.8 179.5C428.7 188.3 471.3 167.7 514.2 147.2C557 126.7 600 106.3 642.8 112.5C685.7 118.7 728.3 151.3 771.2 156.2C814 161 857 138 878.5 126.5L900 115L900 0L878.5 0C857 0 814 0 771.2 0C728.3 0 685.7 0 642.8 0C600 0 557 0 514.2 0C471.3 0 428.7 0 385.8 0C343 0 300 0 257.2 0C214.3 0 171.7 0 128.8 0C86 0 43 0 21.5 0L0 0Z" fill="#EADCA6" stroke-linecap="round" stroke-linejoin="miter"></path></svg>